<?xml version="1.0" standalone="no"?>
<!DOCTYPE svg PUBLIC "-//W3C//DTD SVG 20010904//EN"
 "http://www.w3.org/TR/2001/REC-SVG-20010904/DTD/svg10.dtd">
<svg version="1.0" xmlns="http://www.w3.org/2000/svg"
 width="1024.000000pt" height="1024.000000pt" viewBox="0 0 1024.000000 1024.000000"
 preserveAspectRatio="xMidYMid meet">

<g transform="translate(0.000000,1024.000000) scale(0.100000,-0.100000)"
fill="#000000" stroke="none">
<path d="M4620 7000 c-7 -4 -8 -9 -2 -11 16 -7 25 -49 10 -50 -7 0 -4 -4 7 -9
l20 -9 -20 -1 -20 -1 20 -8 c11 -5 25 -4 33 1 9 8 12 6 12 -6 0 -10 -4 -14
-10 -11 -5 3 -10 2 -10 -3 0 -6 -9 -8 -20 -5 -16 4 -20 0 -21 -18 -1 -13 -3
-59 -5 -101 l-3 -78 159 0 c136 0 160 2 160 15 0 8 -3 14 -7 13 -15 -4 -73 14
-73 22 0 5 -10 11 -22 13 -15 3 -9 5 17 8 22 1 -3 5 -55 8 l-95 6 -3 78 -3 77
43 1 c34 2 37 3 13 6 -16 3 -33 10 -37 16 -6 9 -8 9 -8 0 0 -16 -26 -17 -36
-1 -5 7 -2 9 8 5 11 -4 16 1 16 19 0 13 -6 24 -12 25 -6 0 -18 2 -27 4 -9 1
-22 -1 -29 -5z m35 -20 c3 -5 1 -10 -4 -10 -6 0 -11 5 -11 10 0 6 2 10 4 10 3
0 8 -4 11 -10z m12 -146 c-3 -3 -12 -4 -19 -1 -8 3 -5 6 6 6 11 1 17 -2 13 -5z
m9 -71 c-3 -3 -12 -3 -21 1 -13 5 -14 8 -3 20 11 12 14 12 21 -1 5 -8 6 -17 3
-20z m64 -13 c0 -5 -2 -10 -4 -10 -3 0 -8 5 -11 10 -3 6 -1 10 4 10 6 0 11 -4
11 -10z m57 4 c-3 -3 -12 -4 -19 -1 -8 3 -5 6 6 6 11 1 17 -2 13 -5z"/>
<path d="M4714 6983 c3 -8 6 -17 6 -19 0 -2 12 -4 26 -4 21 0 24 3 15 14 -18
21 -54 28 -47 9z"/>
<path d="M4788 6993 c-19 -5 -20 -43 -1 -43 7 0 13 4 13 10 0 5 7 7 15 4 24
-9 18 -22 -12 -27 -16 -2 35 -4 112 -4 85 -1 125 2 102 7 -20 4 -41 10 -45 14
-4 4 5 5 21 1 17 -5 33 -2 43 6 14 12 13 14 -12 21 -18 5 -31 3 -35 -4 -5 -8
-12 -6 -24 5 -11 12 -32 17 -68 16 -29 0 -46 -3 -39 -6 17 -7 15 -23 -3 -23
-9 0 -18 7 -21 15 -6 15 -14 17 -46 8z m159 -9 c-3 -3 -12 -4 -19 -1 -8 3 -5
6 6 6 11 1 17 -2 13 -5z m10 -40 c-3 -3 -12 -4 -19 -1 -8 3 -5 6 6 6 11 1 17
-2 13 -5z"/>
<path d="M4878 6739 c10 -9 137 -21 128 -12 -4 4 -36 10 -71 13 -36 3 -61 3
-57 -1z"/>
<path d="M4841 6562 c1 -32 17 -77 18 -51 1 9 8 22 16 29 8 7 12 16 9 21 -3 5
5 5 19 0 15 -6 29 -6 38 1 11 8 10 9 -3 4 -11 -3 -18 0 -18 8 0 8 -15 13 -40
14 -37 2 -40 0 -39 -26z"/>
<path d="M5511 5623 c-29 -39 -34 -45 -51 -68 -14 -19 -14 -19 3 -6 20 16 81
101 73 101 -2 0 -14 -12 -25 -27z"/>
<path d="M5418 5518 c-9 -10 -23 -21 -32 -22 -8 -1 -18 -5 -22 -9 -4 -3 6 -4
22 -1 32 6 71 38 57 47 -5 3 -16 -4 -25 -15z"/>
<path d="M5365 5460 c-3 -6 1 -7 9 -4 18 7 21 14 7 14 -6 0 -13 -4 -16 -10z"/>
<path d="M5185 5390 c-10 -11 -14 -20 -9 -20 5 0 15 9 22 20 7 11 11 20 9 20
-2 0 -12 -9 -22 -20z"/>
<path d="M5245 5400 c3 -6 1 -10 -4 -10 -7 0 -7 -7 1 -20 16 -25 30 -26 21 -2
-6 15 -5 16 12 2 17 -14 18 -14 7 6 -6 12 -19 24 -27 28 -9 3 -13 2 -10 -4z"/>
<path d="M5306 5393 c-6 -14 -5 -15 5 -6 7 7 10 15 7 18 -3 3 -9 -2 -12 -12z"/>
<path d="M5140 5350 c-8 -5 -12 -12 -9 -15 4 -3 12 1 19 10 14 17 11 19 -10 5z"/>
<path d="M5168 5319 c28 -15 28 -26 0 -25 -13 1 -23 -5 -24 -11 -1 -7 -3 -16
-4 -20 -1 -5 -2 -11 -2 -14 1 -3 -5 -6 -13 -6 -8 0 -11 5 -7 11 13 22 10 36
-10 36 -17 0 -18 3 -8 15 7 8 10 15 6 15 -9 0 -96 -81 -96 -90 0 -10 33 -9 48
3 9 7 12 2 12 -23 0 -17 4 -30 9 -28 5 2 41 33 80 70 57 54 67 68 49 67 -13
-1 -32 1 -43 5 -15 5 -14 4 3 -5z m-122 -86 c-10 -10 -19 5 -10 18 6 11 8 11
12 0 2 -7 1 -15 -2 -18z m64 -7 c0 -3 -4 -8 -10 -11 -5 -3 -10 -1 -10 4 0 6 5
11 10 11 6 0 10 -2 10 -4z"/>
<path d="M5212 5187 l-32 -33 76 -74 c55 -54 78 -70 83 -61 6 10 10 10 13 1 2
-6 19 -12 38 -13 29 -2 39 -9 58 -40 13 -20 20 -42 16 -48 -4 -8 -13 0 -24 20
-15 30 -17 31 -31 15 -11 -13 -11 -18 -1 -21 6 -3 10 -9 6 -14 -9 -15 -24 -10
-24 7 0 10 -5 14 -15 10 -9 -3 -18 1 -21 9 -5 13 -37 15 -188 15 l-182 0 -32
-33 c-18 -18 -32 -36 -32 -40 0 -13 199 -8 221 6 17 10 23 10 26 0 3 -10 39
-13 130 -13 116 0 125 1 130 20 3 11 10 17 15 14 5 -3 7 -13 4 -21 -3 -8 -1
-11 4 -8 6 3 10 0 10 -7 0 -10 2 -10 9 1 5 8 7 20 4 28 -3 7 0 13 6 13 10 0
16 -21 12 -43 -1 -5 3 -6 8 -3 5 4 14 -2 20 -11 6 -10 11 -13 11 -8 0 17 -96
167 -132 206 -28 29 -39 35 -70 33 -21 -1 -36 2 -33 6 3 5 -1 11 -7 13 -10 4
-10 6 0 6 6 1 12 6 12 12 0 6 -7 8 -16 5 -9 -3 -12 -2 -8 5 3 6 15 8 27 5 15
-4 10 5 -19 35 -21 21 -39 39 -39 39 -1 0 -15 -15 -33 -33z m159 -150 c-10 -9
-11 -8 -5 6 3 10 9 15 12 12 3 -3 0 -11 -7 -18z m-348 -94 c-7 -2 -19 -2 -25
0 -7 3 -2 5 12 5 14 0 19 -2 13 -5z m144 1 c-3 -3 -12 -4 -19 -1 -8 3 -5 6 6
6 11 1 17 -2 13 -5z m58 -4 c-3 -5 -13 -10 -21 -10 -8 0 -14 5 -14 10 0 6 9
10 21 10 11 0 17 -4 14 -10z m50 0 c-3 -5 -12 -7 -20 -3 -21 7 -19 13 6 13 11
0 18 -4 14 -10z"/>
<path d="M5020 5206 c0 -2 7 -6 15 -10 8 -3 15 -1 15 4 0 6 -7 10 -15 10 -8 0
-15 -2 -15 -4z"/>
<path d="M4890 5120 c-39 -39 -70 -74 -70 -78 0 -4 -15 -24 -33 -45 -17 -21
-41 -49 -52 -62 -18 -23 -43 -36 -31 -17 2 4 -3 8 -12 8 -9 1 -24 4 -33 8 -21
9 -60 -103 -62 -181 -1 -32 -6 -61 -12 -65 -6 -5 -4 -12 5 -18 19 -13 30 -13
30 0 0 6 -4 10 -8 10 -4 0 -8 9 -8 20 0 19 1 19 19 -1 11 -11 17 -23 13 -26
-6 -7 19 -33 32 -33 6 0 12 -6 15 -12 2 -7 7 3 12 22 21 100 171 328 279 425
42 38 54 55 50 70 -4 16 -3 17 5 5 10 -13 12 -13 21 0 14 22 12 30 -9 30 -11
0 -27 3 -37 7 -12 4 -15 3 -10 -5 5 -8 0 -12 -14 -12 -12 0 -18 5 -15 10 16
26 -12 4 -75 -60z m109 30 c-2 -14 -18 -43 -18 -33 -1 6 -8 19 -17 27 -14 14
-13 16 10 14 14 -1 26 -5 25 -8z m-56 -67 c-7 -2 -19 -2 -25 0 -7 3 -2 5 12 5
14 0 19 -2 13 -5z m-291 -317 c7 4 8 2 4 -5 -9 -13 -26 -5 -25 12 0 9 2 8 6
-1 2 -6 10 -9 15 -6z m-37 -26 c3 -5 1 -10 -4 -10 -6 0 -11 5 -11 10 0 6 2 10
4 10 3 0 8 -4 11 -10z m30 -19 c3 -5 2 -12 -3 -15 -5 -3 -9 1 -9 9 0 17 3 19
12 6z m48 -22 c-6 -6 -9 -17 -7 -24 3 -7 1 -16 -4 -19 -5 -3 -9 2 -8 12 0 9
-5 16 -11 15 -20 -4 -15 15 5 20 31 8 36 7 25 -4z"/>
<path d="M5970 5141 c0 -5 5 -13 10 -16 6 -3 10 -2 10 4 0 5 -4 13 -10 16 -5
3 -10 2 -10 -4z"/>
<path d="M5320 5122 c0 -5 7 -13 16 -16 10 -4 14 -1 12 6 -5 15 -28 23 -28 10z"/>
<path d="M4250 5095 c7 -8 17 -12 22 -9 6 4 5 10 -3 15 -22 14 -33 10 -19 -6z"/>
<path d="M4275 5070 c-9 -14 3 -30 23 -30 15 0 15 2 2 10 -13 9 -13 11 0 20
13 8 13 10 -2 10 -9 0 -20 -4 -23 -10z"/>
<path d="M4330 5055 c10 -12 10 -15 -1 -15 -8 0 -4 -8 9 -20 12 -12 22 -26 22
-33 -1 -7 -9 -2 -20 11 -11 13 -24 21 -29 18 -5 -4 -12 -2 -16 3 -3 6 -13 7
-21 4 -15 -5 -15 -7 0 -15 9 -5 14 -13 11 -19 -4 -5 1 -10 9 -10 30 -3 34 -4
43 -13 5 -5 3 -6 -4 -2 -7 4 -13 3 -13 -3 0 -6 -7 -8 -17 -4 -14 6 -14 2 3
-26 22 -37 48 -64 39 -39 -4 9 1 18 9 21 12 5 16 0 16 -18 0 -14 3 -24 8 -24
25 4 32 -2 22 -20 -8 -15 -7 -19 6 -17 9 1 19 8 24 15 6 10 9 10 15 1 4 -7 -6
-23 -24 -39 -29 -26 -30 -29 -15 -49 8 -12 20 -19 26 -16 7 5 9 1 5 -9 -3 -9
-3 -16 1 -16 4 1 18 -2 31 -6 l23 -8 -23 -14 c-15 -9 -17 -12 -5 -9 11 4 24
-1 33 -11 14 -17 14 -17 9 2 l-6 20 15 -20 c9 -11 19 -19 23 -17 3 2 8 -1 9
-5 5 -15 -56 -11 -61 4 -3 7 -11 13 -17 13 -7 0 -5 -8 6 -20 10 -11 22 -17 26
-14 5 3 9 -1 9 -9 0 -7 6 -14 14 -14 8 0 12 6 8 15 -3 10 -1 13 6 8 32 -19 16
29 -49 147 -39 73 -90 167 -113 209 -23 43 -45 78 -50 78 -5 0 -3 -7 4 -15z
m57 -111 c8 -17 8 -24 1 -22 -13 5 -31 48 -20 48 4 0 12 -12 19 -26z m28 -54
c16 -17 16 -20 3 -15 -9 4 -19 13 -22 21 -7 19 -2 18 19 -6z m55 -130 c-8 -5
-17 -7 -19 -4 -3 3 1 9 9 14 23 14 -6 13 -33 -2 -20 -10 -21 -10 -8 5 7 10 20
17 28 17 10 0 13 7 9 23 -4 13 1 8 11 -11 15 -28 15 -34 3 -42z"/>
<path d="M5990 5059 c0 -5 5 -7 10 -4 6 3 10 8 10 11 0 2 -4 4 -10 4 -5 0 -10
-5 -10 -11z"/>
<path d="M4250 5040 c0 -5 5 -10 11 -10 5 0 7 5 4 10 -3 6 -8 10 -11 10 -2 0
-4 -4 -4 -10z"/>
<path d="M5887 5027 c-3 -9 1 -18 9 -21 16 -6 18 2 5 22 -7 11 -9 11 -14 -1z"/>
<path d="M5340 4999 c0 -12 25 -22 41 -17 6 2 0 9 -15 16 -16 7 -26 8 -26 1z"/>
<path d="M5928 4996 c-7 -7 -20 -11 -30 -8 -14 3 -17 0 -12 -12 3 -9 1 -16 -5
-16 -6 0 -11 -8 -11 -18 0 -10 -5 -23 -10 -28 -14 -14 -3 -41 19 -47 19 -5 21
-2 69 83 30 52 30 56 12 57 -11 1 -26 -4 -32 -11z m19 -18 c-3 -8 -6 -5 -6 6
-1 11 2 17 5 13 3 -3 4 -12 1 -19z m-23 -49 c-3 -5 -11 -9 -17 -8 -9 0 -8 2 1
6 18 7 4 23 -16 17 -14 -5 -14 -4 -2 4 16 12 44 -4 34 -19z m-21 -35 c-5 -15
-16 -18 -26 -8 -10 11 4 33 18 28 8 -3 11 -12 8 -20z"/>
<path d="M5367 4959 c7 -7 15 -10 18 -7 3 3 -2 9 -12 12 -14 6 -15 5 -6 -5z"/>
<path d="M5494 4841 c7 -9 11 -22 9 -29 -4 -11 -2 -11 16 0 12 7 21 16 21 21
0 4 -5 5 -10 2 -6 -3 -13 0 -16 8 -2 7 -11 14 -19 14 -13 0 -13 -3 -1 -16z"/>
<path d="M5870 4835 c-7 -9 -8 -15 -2 -15 5 0 12 7 16 15 3 8 4 15 2 15 -2 0
-9 -7 -16 -15z"/>
<path d="M4370 4821 c0 -5 5 -13 10 -16 6 -3 10 -2 10 4 0 5 -4 13 -10 16 -5
3 -10 2 -10 -4z"/>
<path d="M5847 4803 c-4 -3 -7 -11 -7 -17 0 -6 5 -5 12 2 6 6 9 14 7 17 -3 3
-9 2 -12 -2z"/>
<path d="M5825 4759 c-4 -6 -5 -12 -2 -15 2 -3 7 2 10 11 7 17 1 20 -8 4z"/>
<path d="M4823 4693 c9 -2 25 -2 35 0 9 3 1 5 -18 5 -19 0 -27 -2 -17 -5z"/>
<path d="M4888 4693 c7 -3 16 -2 19 1 4 3 -2 6 -13 5 -11 0 -14 -3 -6 -6z"/>
<path d="M5383 4693 c15 -2 37 -2 50 0 12 2 0 4 -28 4 -27 0 -38 -2 -22 -4z"/>
<path d="M4818 4653 c6 -2 18 -2 25 0 6 3 1 5 -13 5 -14 0 -19 -2 -12 -5z"/>
<path d="M3236 3993 c-9 -10 -7 -25 3 -18 5 3 12 -3 14 -12 4 -14 5 -13 6 4 1
23 -11 37 -23 26z"/>
<path d="M3684 3978 l-19 -23 25 20 c14 11 27 21 29 22 2 2 0 3 -6 3 -5 0 -18
-10 -29 -22z"/>
<path d="M3800 3996 c0 -2 8 -10 18 -17 15 -13 16 -12 3 4 -13 16 -21 21 -21
13z"/>
<path d="M4140 3995 c0 -5 5 -17 10 -25 5 -8 10 -10 10 -5 0 6 -5 17 -10 25
-5 8 -10 11 -10 5z"/>
<path d="M4575 3834 l0 -164 25 1 c17 1 19 3 8 6 -16 4 -18 18 -18 106 1 56 5
121 9 144 7 34 5 45 -8 57 -15 13 -16 1 -16 -150z"/>
<path d="M6377 3994 c-6 -7 1 -216 8 -222 2 -2 5 48 7 112 3 109 1 125 -15
110z"/>
<path d="M6500 3983 c0 -10 4 -14 8 -8 4 6 11 13 16 18 5 4 2 7 -7 7 -10 0
-17 -8 -17 -17z"/>
<path d="M3443 3957 c40 -37 62 -102 54 -159 -4 -30 -2 -38 10 -38 10 0 14 6
10 20 -3 11 0 20 6 20 8 0 7 4 -1 12 -14 14 -16 65 -2 70 16 5 -27 67 -62 88
-48 29 -54 24 -15 -13z"/>
<path d="M5008 3983 c7 -3 16 -2 19 1 4 3 -2 6 -13 5 -11 0 -14 -3 -6 -6z"/>
<path d="M5359 3973 c-13 -17 -13 -17 6 -3 11 8 22 16 24 17 2 2 0 3 -6 3 -6
0 -17 -8 -24 -17z"/>
<path d="M5554 3971 c21 -23 26 -26 26 -11 0 5 -10 15 -22 21 -23 12 -23 12
-4 -10z"/>
<path d="M5827 3970 c3 -11 0 -20 -6 -20 -6 0 -17 -13 -26 -30 -22 -42 -18
-51 5 -10 11 19 19 31 20 27 0 -5 7 -2 15 7 8 8 12 22 9 30 -9 23 -23 20 -17
-4z"/>
<path d="M6110 3981 c0 -5 7 -12 16 -15 14 -5 15 -4 4 9 -14 17 -20 19 -20 6z"/>
<path d="M6641 3876 c-1 -55 1 -97 3 -95 9 8 13 145 6 169 -5 16 -8 -13 -9
-74z"/>
<path d="M6113 3927 c-1 -17 2 -25 5 -17 3 8 9 18 14 21 5 3 3 11 -5 17 -11
10 -14 6 -14 -21z"/>
<path d="M6882 3930 c2 -36 36 -83 73 -101 17 -9 18 -8 4 3 -8 7 -18 21 -22
31 -3 9 -12 16 -18 15 -6 -2 -13 4 -15 12 -1 8 -8 29 -13 45 l-10 30 1 -35z"/>
<path d="M4121 3947 c2 -1 12 -9 22 -16 15 -12 17 -12 11 3 -3 9 -13 16 -22
16 -8 0 -13 -1 -11 -3z"/>
<path d="M5851 3935 c0 -5 6 -21 14 -35 8 -14 14 -20 14 -15 0 6 -6 21 -14 35
-8 14 -14 21 -14 15z"/>
<path d="M5299 3909 c-12 -23 -14 -106 -3 -142 13 -46 90 -108 131 -106 10 0
-4 10 -32 23 -56 25 -80 49 -69 67 4 8 3 9 -4 5 -7 -4 -12 -3 -12 3 0 5 -3 17
-7 27 -4 12 -3 15 5 10 9 -5 12 8 12 46 0 38 -3 49 -10 38 -14 -21 -13 5 0 31
6 10 8 19 6 19 -3 0 -10 -10 -17 -21z m8 -81 c-3 -8 -6 -5 -6 6 -1 11 2 17 5
13 3 -3 4 -12 1 -19z"/>
<path d="M3660 3910 c0 -5 5 -10 11 -10 5 0 7 5 4 10 -3 6 -8 10 -11 10 -2 0
-4 -4 -4 -10z"/>
<path d="M6150 3916 c0 -2 8 -10 18 -17 15 -13 16 -12 3 4 -13 16 -21 21 -21
13z"/>
<path d="M4841 3870 c6 -27 6 -55 -1 -78 -5 -20 -6 -40 -1 -45 9 -9 13 10 15
85 0 32 -4 62 -11 69 -9 9 -9 1 -2 -31z"/>
<path d="M4180 3890 c0 -5 5 -10 11 -10 5 0 7 5 4 10 -3 6 -8 10 -11 10 -2 0
-4 -4 -4 -10z"/>
<path d="M3677 3871 c3 -11 13 -19 23 -18 14 1 16 4 6 19 -15 24 -35 23 -29
-1z"/>
<path d="M5766 3855 c-9 -26 -7 -32 5 -12 6 10 9 21 6 23 -2 3 -7 -2 -11 -11z"/>
<path d="M4065 3818 c-25 -62 -28 -76 -13 -53 15 23 39 88 34 93 -2 1 -11 -16
-21 -40z"/>
<path d="M3870 3841 c0 -6 4 -12 8 -15 5 -3 9 1 9 9 0 8 -4 15 -9 15 -4 0 -8
-4 -8 -9z"/>
<path d="M5024 3765 c0 -49 1 -71 3 -48 2 23 2 64 0 90 -2 26 -3 8 -3 -42z"/>
<path d="M6112 3820 c0 -19 2 -27 5 -17 2 9 2 25 0 35 -3 9 -5 1 -5 -18z"/>
<path d="M4207 3827 c-3 -9 -3 -17 2 -17 4 0 18 -23 31 -51 13 -28 28 -53 33
-56 4 -3 -5 21 -21 54 -16 32 -31 65 -34 72 -3 12 -6 12 -11 -2z"/>
<path d="M5120 3836 c0 -2 7 -7 16 -10 8 -3 12 -2 9 4 -6 10 -25 14 -25 6z"/>
<path d="M3627 3803 c-4 -3 -7 -20 -6 -37 l1 -31 8 35 c9 36 8 45 -3 33z"/>
<path d="M7021 3768 c7 -16 16 -28 21 -28 13 0 10 9 -13 33 l-21 22 13 -27z"/>
<path d="M5930 3755 c0 -5 5 -17 10 -25 5 -8 10 -10 10 -5 0 6 -5 17 -10 25
-5 8 -10 11 -10 5z"/>
<path d="M3485 3740 c3 -5 8 -10 11 -10 2 0 4 5 4 10 0 6 -5 10 -11 10 -5 0
-7 -4 -4 -10z"/>
<path d="M3834 3719 c14 -11 34 -18 44 -16 13 4 13 5 -4 6 -12 0 -27 8 -34 16
-7 8 -17 15 -23 15 -5 0 2 -9 17 -21z"/>
<path d="M5571 3717 c-13 -21 -12 -21 5 -5 10 10 16 20 13 22 -3 3 -11 -5 -18
-17z"/>
<path d="M6375 3720 c-3 -5 -1 -10 4 -10 6 0 11 5 11 10 0 6 -2 10 -4 10 -3 0
-8 -4 -11 -10z"/>
<path d="M7021 3697 c-13 -21 -12 -21 5 -5 10 10 16 20 13 22 -3 3 -11 -5 -18
-17z"/>
<path d="M3250 3694 c0 -8 -4 -13 -9 -10 -5 3 -11 0 -14 -7 -4 -10 2 -13 18
-9 16 3 21 9 18 23 -6 23 -13 25 -13 3z"/>
<path d="M4021 3694 c0 -11 3 -14 6 -6 3 7 2 16 -1 19 -3 4 -6 -2 -5 -13z"/>
<path d="M4770 3690 c-19 -11 -31 -19 -27 -20 11 0 67 29 67 35 0 7 -1 7 -40
-15z"/>
<path d="M5950 3701 c0 -6 5 -11 11 -11 5 0 7 -4 4 -10 -3 -5 -1 -10 4 -10 16
0 13 16 -4 30 -10 9 -15 9 -15 1z"/>
<path d="M4246 3687 c3 -10 9 -15 12 -12 3 3 0 11 -7 18 -10 9 -11 8 -5 -6z"/>
<path d="M5175 3689 c-4 -6 -5 -12 -2 -15 2 -3 7 2 10 11 7 17 1 20 -8 4z"/>
<path d="M6376 3685 c4 -8 8 -15 10 -15 2 0 4 7 4 15 0 8 -4 15 -10 15 -5 0
-7 -7 -4 -15z"/>
<path d="M6625 3679 c7 -11 35 -12 35 -1 0 4 -9 8 -20 9 -11 1 -18 -2 -15 -8z"/>
<path d="M6900 3670 c8 -5 20 -10 25 -10 6 0 3 5 -5 10 -8 5 -19 10 -25 10 -5
0 -3 -5 5 -10z"/>
<path d="M3738 3663 c6 -2 18 -2 25 0 6 3 1 5 -13 5 -14 0 -19 -2 -12 -5z"/>
<path d="M4423 3493 c-7 -2 -13 -16 -13 -29 0 -13 -6 -24 -12 -24 -10 0 -10
-2 -1 -8 6 -4 13 -21 16 -37 2 -17 5 -6 6 28 1 50 4 59 24 67 12 5 15 9 7 9
-8 -1 -21 -3 -27 -6z"/>
<path d="M4490 3490 c0 -5 5 -10 10 -10 6 0 10 5 10 10 0 6 -4 10 -10 10 -5 0
-10 -4 -10 -10z"/>
<path d="M4795 3490 c-3 -5 -1 -10 4 -10 6 0 11 5 11 10 0 6 -2 10 -4 10 -3 0
-8 -4 -11 -10z"/>
<path d="M6206 3484 c-10 -9 -15 -30 -14 -52 l1 -37 4 35 c3 19 12 43 20 53
20 21 10 23 -11 1z"/>
<path d="M3201 3408 c0 -49 2 -88 7 -88 4 0 6 28 4 62 -5 107 -9 117 -11 26z"/>
<path d="M5328 3483 c7 -3 16 -2 19 1 4 3 -2 6 -13 5 -11 0 -14 -3 -6 -6z"/>
<path d="M4692 3450 c-7 -11 -8 -20 -3 -20 6 0 11 -23 13 -52 2 -32 8 -52 16
-54 7 -1 8 0 2 3 -5 2 -10 26 -10 53 0 38 4 50 18 53 15 4 15 5 0 6 -9 0 -18
8 -20 16 -2 13 -6 12 -16 -5z"/>
<path d="M3450 3400 c0 -26 -7 -47 -19 -59 -18 -18 -18 -19 5 -17 22 1 24 5
24 59 0 31 -2 57 -5 57 -3 0 -5 -18 -5 -40z"/>
<path d="M3530 3412 c20 -29 20 -35 8 -50 -8 -9 -18 -24 -23 -32 -4 -8 4 -2
18 15 l24 29 27 -29 27 -30 -23 34 c-13 19 -36 48 -52 65 l-29 31 23 -33z"/>
<path d="M3662 3428 c-7 -7 -12 -19 -12 -27 1 -12 4 -11 12 4 6 11 16 23 22
27 7 5 8 8 1 8 -6 0 -16 -5 -23 -12z"/>
<path d="M3715 3433 c45 -11 58 -60 25 -93 -11 -11 -16 -20 -12 -20 15 0 42
36 42 56 0 30 -29 64 -53 63 -20 -1 -20 -2 -2 -6z"/>
<path d="M3892 3428 c-7 -7 -12 -17 -12 -22 0 -6 5 -3 11 7 13 21 62 23 83 1
9 -8 16 -11 16 -5 0 27 -76 41 -98 19z"/>
<path d="M4112 3431 c-17 -10 -12 -43 6 -47 7 -1 8 0 2 3 -16 8 -12 31 8 42 9
6 13 10 7 11 -5 0 -16 -4 -23 -9z"/>
<path d="M4247 3422 c-10 -10 -17 -30 -17 -44 0 -24 27 -58 46 -58 4 0 -2 7
-14 16 -32 22 -27 74 8 91 16 8 19 13 9 13 -9 0 -23 -8 -32 -18z"/>
<path d="M4566 3432 c-2 -4 13 -6 35 -4 21 2 39 6 39 8 0 7 -69 4 -74 -4z"/>
<path d="M4803 3380 c0 -36 2 -50 4 -32 2 17 2 47 0 65 -2 17 -4 3 -4 -33z"/>
<path d="M4877 3422 c-21 -23 -22 -66 -1 -86 22 -22 31 -20 11 2 -21 23 -22
65 -2 82 8 7 28 10 44 8 17 -2 28 -1 25 4 -9 15 -61 8 -77 -10z"/>
<path d="M5028 3433 c6 -2 18 -2 25 0 6 3 1 5 -13 5 -14 0 -19 -2 -12 -5z"/>
<path d="M5083 3425 c11 -10 14 -27 10 -53 -3 -24 -1 -42 6 -46 7 -5 11 8 11
41 0 46 -12 73 -33 73 -5 0 -2 -7 6 -15z"/>
<path d="M5178 3429 c-33 -19 -19 -99 19 -113 14 -6 13 -2 -4 14 -26 24 -30
71 -8 90 8 7 28 10 44 8 17 -2 28 -1 25 4 -7 11 -55 10 -76 -3z"/>
<path d="M5317 3433 c-3 -4 11 -8 31 -8 l37 0 0 -48 c0 -26 4 -47 8 -47 4 0 7
24 5 53 l-3 52 -37 3 c-20 2 -38 -1 -41 -5z"/>
<path d="M5478 3429 c-10 -5 -18 -18 -18 -27 0 -13 3 -12 16 6 17 24 62 30 82
10 20 -20 14 -65 -10 -82 -12 -9 -18 -16 -12 -16 19 0 44 36 44 62 0 47 -57
73 -102 47z"/>
<path d="M5706 3424 c-30 -30 -11 -104 27 -104 6 0 2 7 -9 14 -29 21 -29 71
-1 91 12 8 16 15 10 15 -6 0 -19 -7 -27 -16z"/>
<path d="M5768 3430 c12 -5 22 -15 22 -21 0 -7 3 -9 6 -6 10 10 -16 37 -35 36
-11 0 -9 -3 7 -9z"/>
<path d="M5850 3404 c0 -39 15 -39 22 0 3 15 0 27 -8 30 -10 4 -14 -4 -14 -30z"/>
<path d="M5915 3431 c28 -6 30 -10 36 -61 5 -45 6 -48 7 -17 1 21 7 47 12 57
8 16 7 18 -4 14 -8 -3 -17 -1 -21 5 -3 6 -18 10 -33 10 -27 -1 -27 -1 3 -8z"/>
<path d="M6015 3431 c28 -6 30 -10 36 -61 l6 -55 1 51 c2 56 -10 75 -47 73
-24 -1 -24 -2 4 -8z"/>
<path d="M6281 3375 l1 -60 10 53 c7 40 15 55 31 62 19 7 17 8 -10 7 l-33 -2
1 -60z"/>
<path d="M6423 3433 c40 -5 39 -4 42 -63 2 -54 15 -64 15 -11 0 63 -13 81 -58
79 l-37 -1 38 -4z"/>
<path d="M6530 3424 c-11 -12 -10 -18 5 -32 18 -16 18 -16 5 2 -13 16 -12 20
5 32 10 8 14 14 8 14 -6 0 -16 -7 -23 -16z"/>
<path d="M6578 3433 c6 -2 18 -2 25 0 6 3 1 5 -13 5 -14 0 -19 -2 -12 -5z"/>
<path d="M6677 3428 c-19 -16 -32 -63 -19 -72 5 -3 10 6 10 19 0 38 21 57 58
53 18 -2 30 0 28 4 -8 12 -58 9 -77 -4z"/>
<path d="M6817 3422 c-30 -33 -13 -102 26 -102 6 0 1 7 -11 16 -32 22 -27 74
8 91 16 8 19 13 9 13 -9 0 -23 -8 -32 -18z"/>
<path d="M6970 3425 c-14 -17 -7 -45 12 -44 10 0 10 2 1 6 -19 7 -16 30 5 42
9 6 12 11 6 11 -6 0 -17 -7 -24 -15z"/>
<path d="M7018 3433 c7 -3 16 -2 19 1 4 3 -2 6 -13 5 -11 0 -14 -3 -6 -6z"/>
<path d="M4567 3389 c7 -7 15 -10 18 -7 3 3 -2 9 -12 12 -14 6 -15 5 -6 -5z"/>
<path d="M3870 3374 c0 -8 5 -12 10 -9 6 3 10 10 10 16 0 5 -4 9 -10 9 -5 0
-10 -7 -10 -16z"/>
<path d="M3647 3363 c9 -26 24 -43 37 -43 6 0 3 5 -6 11 -10 5 -18 16 -18 24
0 8 -4 17 -10 20 -6 4 -7 -1 -3 -12z"/>
<path d="M4160 3376 c0 -2 7 -7 16 -10 8 -3 12 -2 9 4 -6 10 -25 14 -25 6z"/>
<path d="M4618 3370 c24 -10 27 -20 12 -38 -5 -7 -2 -6 7 2 13 12 14 18 3 30
-7 9 -20 16 -29 15 -11 0 -9 -3 7 -9z"/>
<path d="M5310 3364 c-11 -12 -10 -18 5 -32 18 -16 18 -16 6 1 -11 14 -11 20
-1 32 7 8 10 15 7 15 -2 0 -10 -7 -17 -16z"/>
<path d="M6192 3350 c0 -19 2 -27 5 -17 2 9 2 25 0 35 -3 9 -5 1 -5 -18z"/>
<path d="M6387 3373 c-9 -9 -9 -41 1 -46 4 -3 7 8 7 24 0 16 0 29 -1 29 0 0
-4 -3 -7 -7z"/>
<path d="M6598 3362 c9 -10 19 -17 21 -16 6 5 -20 34 -30 34 -5 0 -1 -8 9 -18z"/>
<path d="M6910 3366 c0 -8 -10 -22 -22 -30 -12 -9 -17 -16 -11 -16 16 0 43 29
43 46 0 8 -2 14 -5 14 -3 0 -5 -6 -5 -14z"/>
<path d="M7023 3370 c19 -12 23 -35 7 -43 -6 -3 -5 -4 2 -3 22 4 16 50 -7 54
-18 2 -18 2 -2 -8z"/>
<path d="M5460 3356 c0 -8 4 -17 9 -20 5 -4 7 3 4 14 -6 23 -13 26 -13 6z"/>
<path d="M4325 3340 c-16 -17 -16 -20 -3 -15 9 4 19 13 22 21 7 19 2 18 -19
-6z"/>
<path d="M5857 3346 c-4 -10 -5 -21 -2 -24 9 -9 17 6 13 25 -3 17 -4 17 -11
-1z"/>
<path d="M3350 3341 c0 -5 7 -12 16 -15 14 -5 15 -4 4 9 -14 17 -20 19 -20 6z"/>
<path d="M5000 3346 c0 -2 8 -10 18 -17 15 -13 16 -12 3 4 -13 16 -21 21 -21
13z"/>
<path d="M3273 3323 c9 -2 23 -2 30 0 6 3 -1 5 -18 5 -16 0 -22 -2 -12 -5z"/>
<path d="M4108 3323 c7 -3 16 -2 19 1 4 3 -2 6 -13 5 -11 0 -14 -3 -6 -6z"/>
<path d="M6968 3323 c7 -3 16 -2 19 1 4 3 -2 6 -13 5 -11 0 -14 -3 -6 -6z"/>
<path d="M5205 3270 c-16 -7 -17 -9 -3 -9 9 -1 20 4 23 9 7 11 7 11 -20 0z"/>
</g>
</svg>
